<mxfile host="app.diagrams.net" agent="Mozilla/5.0 (Macintosh; Intel Mac OS X 10_15_7) AppleWebKit/537.36 (KHTML, like Gecko) Chrome/128.0.0.0 Safari/537.36" version="24.7.16">
  <diagram name="第 1 页" id="oYmZBDzLEDnLIbyE7Xty">
    <mxGraphModel dx="1919" dy="321" grid="1" gridSize="10" guides="1" tooltips="1" connect="1" arrows="1" fold="1" page="0" pageScale="1" pageWidth="1169" pageHeight="827" math="1" shadow="0">
      <root>
        <mxCell id="0" />
        <mxCell id="1" parent="0" />
        <UserObject label="" tags="Background" id="4s-bQreygS-hecEZm2PZ-54">
          <mxCell style="vsdxID=113;edgeStyle=none;startArrow=none;endArrow=classic;strokeWidth=1;strokeColor=#6c8ebf;spacingTop=0;spacingBottom=0;spacingLeft=0;spacingRight=0;verticalAlign=middle;html=1;labelBackgroundColor=#ffffff;rounded=1;shape=flexArrow;fillColor=#dae8fc;" parent="1" edge="1">
            <mxGeometry relative="1" as="geometry">
              <mxPoint x="-34" y="102" as="offset" />
              <Array as="points" />
              <mxPoint x="87" y="1203" as="sourcePoint" />
              <mxPoint x="160" y="1203" as="targetPoint" />
            </mxGeometry>
          </mxCell>
        </UserObject>
        <mxCell id="4s-bQreygS-hecEZm2PZ-118" value="" style="ellipse;whiteSpace=wrap;html=1;aspect=fixed;fillColor=#F19C99;strokeColor=#b85450;" parent="1" vertex="1">
          <mxGeometry x="-250" y="1123" width="50" height="50" as="geometry" />
        </mxCell>
        <mxCell id="4s-bQreygS-hecEZm2PZ-119" value="" style="ellipse;whiteSpace=wrap;html=1;aspect=fixed;fillColor=#f8cecc;strokeColor=#b85450;" parent="1" vertex="1">
          <mxGeometry x="-290" y="1190" width="50" height="50" as="geometry" />
        </mxCell>
        <mxCell id="4s-bQreygS-hecEZm2PZ-132" style="edgeStyle=none;curved=1;rounded=0;orthogonalLoop=1;jettySize=auto;html=1;fontSize=12;shape=flexArrow;width=6.666666666666667;endSize=3.58;endWidth=16.88888888888889;fillColor=#f8f1f1;strokeColor=#b85450;gradientColor=none;gradientDirection=radial;" parent="1" source="4s-bQreygS-hecEZm2PZ-120" target="4s-bQreygS-hecEZm2PZ-119" edge="1">
          <mxGeometry relative="1" as="geometry" />
        </mxCell>
        <mxCell id="4s-bQreygS-hecEZm2PZ-120" value="" style="ellipse;whiteSpace=wrap;html=1;aspect=fixed;fillColor=#F9F1F1;strokeColor=#b85450;" parent="1" vertex="1">
          <mxGeometry x="-330" y="1260" width="50" height="50" as="geometry" />
        </mxCell>
        <mxCell id="4s-bQreygS-hecEZm2PZ-121" value="" style="ellipse;whiteSpace=wrap;html=1;aspect=fixed;fillColor=#EAF1FB;strokeColor=#6c8ebf;" parent="1" vertex="1">
          <mxGeometry x="-250" y="1260" width="50" height="50" as="geometry" />
        </mxCell>
        <mxCell id="4s-bQreygS-hecEZm2PZ-122" value="" style="ellipse;whiteSpace=wrap;html=1;aspect=fixed;fillColor=#dae8fc;strokeColor=#6c8ebf;" parent="1" vertex="1">
          <mxGeometry x="-210" y="1190" width="50" height="50" as="geometry" />
        </mxCell>
        <mxCell id="4s-bQreygS-hecEZm2PZ-123" value="" style="ellipse;whiteSpace=wrap;html=1;aspect=fixed;fillColor=#F1F9F1;strokeColor=#82b366;" parent="1" vertex="1">
          <mxGeometry x="-170" y="1260" width="50" height="50" as="geometry" />
        </mxCell>
        <mxCell id="4s-bQreygS-hecEZm2PZ-124" value="" style="ellipse;whiteSpace=wrap;html=1;aspect=fixed;fillColor=#F1F9F1;strokeColor=#82b366;align=center;verticalAlign=middle;fontFamily=Helvetica;fontSize=12;fontColor=default;" parent="1" vertex="1">
          <mxGeometry x="-90" y="1260" width="50" height="50" as="geometry" />
        </mxCell>
        <mxCell id="4s-bQreygS-hecEZm2PZ-125" value="" style="ellipse;whiteSpace=wrap;html=1;aspect=fixed;fillColor=#F1F9F1;strokeColor=#82b366;align=center;verticalAlign=middle;fontFamily=Helvetica;fontSize=12;fontColor=default;" parent="1" vertex="1">
          <mxGeometry x="-10" y="1260" width="50" height="50" as="geometry" />
        </mxCell>
        <mxCell id="4s-bQreygS-hecEZm2PZ-126" value="" style="ellipse;whiteSpace=wrap;html=1;aspect=fixed;fillColor=#d5e8d4;strokeColor=#82b366;" parent="1" vertex="1">
          <mxGeometry x="-130" y="1190" width="50" height="50" as="geometry" />
        </mxCell>
        <mxCell id="4s-bQreygS-hecEZm2PZ-127" value="" style="ellipse;whiteSpace=wrap;html=1;aspect=fixed;fillColor=#d5e8d4;strokeColor=#82b366;" parent="1" vertex="1">
          <mxGeometry x="-50" y="1190" width="50" height="50" as="geometry" />
        </mxCell>
        <mxCell id="4s-bQreygS-hecEZm2PZ-128" value="" style="ellipse;whiteSpace=wrap;html=1;aspect=fixed;fillColor=#B9E0A5;strokeColor=#82b366;" parent="1" vertex="1">
          <mxGeometry x="-90" y="1123" width="50" height="50" as="geometry" />
        </mxCell>
        <mxCell id="4s-bQreygS-hecEZm2PZ-129" value="" style="ellipse;whiteSpace=wrap;html=1;aspect=fixed;fillColor=#e1d5e7;strokeColor=#9673a6;" parent="1" vertex="1">
          <mxGeometry x="-170" y="1123" width="50" height="50" as="geometry" />
        </mxCell>
        <mxCell id="4s-bQreygS-hecEZm2PZ-130" value="" style="ellipse;whiteSpace=wrap;html=1;aspect=fixed;fillColor=#CDA2BE;strokeColor=#9673a6;" parent="1" vertex="1">
          <mxGeometry x="-170" y="1050" width="50" height="50" as="geometry" />
        </mxCell>
        <mxCell id="4s-bQreygS-hecEZm2PZ-150" style="edgeStyle=orthogonalEdgeStyle;rounded=0;orthogonalLoop=1;jettySize=auto;html=1;entryX=0;entryY=0.5;entryDx=0;entryDy=0;fontSize=12;startSize=8;endSize=8;elbow=vertical;exitX=0.5;exitY=0;exitDx=0;exitDy=0;" parent="1" source="4s-bQreygS-hecEZm2PZ-147" target="4s-bQreygS-hecEZm2PZ-118" edge="1">
          <mxGeometry relative="1" as="geometry" />
        </mxCell>
        <mxCell id="4s-bQreygS-hecEZm2PZ-147" value="D2" style="rounded=0;whiteSpace=wrap;html=1;fillColor=#f8cecc;strokeColor=#b85450;dashed=1;aspect=fixed;" parent="1" vertex="1">
          <mxGeometry x="-380" y="1330" width="45" height="45" as="geometry" />
        </mxCell>
        <mxCell id="4s-bQreygS-hecEZm2PZ-151" style="edgeStyle=none;curved=1;rounded=0;orthogonalLoop=1;jettySize=auto;html=1;entryX=0.5;entryY=1;entryDx=0;entryDy=0;fontSize=12;startSize=8;endSize=8;" parent="1" source="4s-bQreygS-hecEZm2PZ-148" target="4s-bQreygS-hecEZm2PZ-122" edge="1">
          <mxGeometry relative="1" as="geometry" />
        </mxCell>
        <mxCell id="4s-bQreygS-hecEZm2PZ-148" value="D3" style="rounded=0;whiteSpace=wrap;html=1;fillColor=#dae8fc;strokeColor=#6c8ebf;dashed=1;aspect=fixed;" parent="1" vertex="1">
          <mxGeometry x="-205" y="1330" width="45" height="45" as="geometry" />
        </mxCell>
        <mxCell id="4s-bQreygS-hecEZm2PZ-152" style="edgeStyle=orthogonalEdgeStyle;rounded=0;orthogonalLoop=1;jettySize=auto;html=1;entryX=1;entryY=0.5;entryDx=0;entryDy=0;fontSize=12;startSize=8;endSize=8;" parent="1" source="4s-bQreygS-hecEZm2PZ-149" target="4s-bQreygS-hecEZm2PZ-128" edge="1">
          <mxGeometry relative="1" as="geometry">
            <Array as="points">
              <mxPoint x="53" y="1148" />
            </Array>
          </mxGeometry>
        </mxCell>
        <mxCell id="4s-bQreygS-hecEZm2PZ-149" value="D1" style="rounded=0;whiteSpace=wrap;html=1;fillColor=#d5e8d4;strokeColor=#82b366;dashed=1;aspect=fixed;" parent="1" vertex="1">
          <mxGeometry x="33" y="1330" width="45" height="45" as="geometry" />
        </mxCell>
        <mxCell id="4s-bQreygS-hecEZm2PZ-181" style="edgeStyle=none;curved=1;rounded=0;orthogonalLoop=1;jettySize=auto;html=1;fontSize=12;shape=flexArrow;width=6.666666666666667;endSize=3.58;endWidth=16.88888888888889;fillColor=#dae8fc;strokeColor=#6c8ebf;gradientDirection=radial;entryX=0.709;entryY=0.94;entryDx=0;entryDy=0;entryPerimeter=0;" parent="1" source="4s-bQreygS-hecEZm2PZ-121" target="4s-bQreygS-hecEZm2PZ-119" edge="1">
          <mxGeometry relative="1" as="geometry">
            <mxPoint x="-283" y="1273" as="sourcePoint" />
            <mxPoint x="-267" y="1247" as="targetPoint" />
          </mxGeometry>
        </mxCell>
        <mxCell id="4s-bQreygS-hecEZm2PZ-183" style="edgeStyle=none;curved=1;rounded=0;orthogonalLoop=1;jettySize=auto;html=1;fontSize=12;shape=flexArrow;width=6.666666666666667;endSize=3.58;endWidth=16.88888888888889;fillColor=#dae8fc;strokeColor=#6c8ebf;gradientDirection=radial;entryX=0.347;entryY=0.983;entryDx=0;entryDy=0;entryPerimeter=0;" parent="1" target="4s-bQreygS-hecEZm2PZ-122" edge="1">
          <mxGeometry relative="1" as="geometry">
            <mxPoint x="-210" y="1266" as="sourcePoint" />
            <mxPoint x="-194" y="1240" as="targetPoint" />
          </mxGeometry>
        </mxCell>
        <mxCell id="4s-bQreygS-hecEZm2PZ-184" style="edgeStyle=none;curved=1;rounded=0;orthogonalLoop=1;jettySize=auto;html=1;fontSize=12;shape=flexArrow;width=6.666666666666667;endSize=3.58;endWidth=16.88888888888889;fillColor=#F1F9F1;strokeColor=#82b366;gradientDirection=radial;exitX=0.693;exitY=0.047;exitDx=0;exitDy=0;exitPerimeter=0;entryX=0.251;entryY=0.924;entryDx=0;entryDy=0;entryPerimeter=0;" parent="1" source="4s-bQreygS-hecEZm2PZ-123" target="4s-bQreygS-hecEZm2PZ-126" edge="1">
          <mxGeometry relative="1" as="geometry">
            <mxPoint x="-136" y="1260" as="sourcePoint" />
            <mxPoint x="-120" y="1234" as="targetPoint" />
          </mxGeometry>
        </mxCell>
        <mxCell id="4s-bQreygS-hecEZm2PZ-185" style="edgeStyle=none;curved=1;rounded=0;orthogonalLoop=1;jettySize=auto;html=1;fontSize=12;shape=flexArrow;width=6.666666666666667;endSize=3.58;endWidth=16.88888888888889;fillColor=#F1F9F1;strokeColor=#82b366;gradientDirection=radial;exitX=0.672;exitY=0.025;exitDx=0;exitDy=0;exitPerimeter=0;" parent="1" source="4s-bQreygS-hecEZm2PZ-124" edge="1">
          <mxGeometry relative="1" as="geometry">
            <mxPoint x="-56" y="1260" as="sourcePoint" />
            <mxPoint x="-40" y="1234" as="targetPoint" />
          </mxGeometry>
        </mxCell>
        <mxCell id="4s-bQreygS-hecEZm2PZ-187" style="edgeStyle=none;curved=1;rounded=0;orthogonalLoop=1;jettySize=auto;html=1;fontSize=12;shape=flexArrow;width=6.666666666666667;endSize=3.58;endWidth=16.88888888888889;fillColor=#F1F9F1;strokeColor=#82b366;gradientDirection=radial;exitX=0.329;exitY=0.028;exitDx=0;exitDy=0;exitPerimeter=0;entryX=0.748;entryY=0.93;entryDx=0;entryDy=0;entryPerimeter=0;" parent="1" source="4s-bQreygS-hecEZm2PZ-125" edge="1">
          <mxGeometry relative="1" as="geometry">
            <mxPoint x="6" y="1260" as="sourcePoint" />
            <mxPoint x="-10" y="1234" as="targetPoint" />
          </mxGeometry>
        </mxCell>
        <mxCell id="4s-bQreygS-hecEZm2PZ-188" style="edgeStyle=none;curved=1;rounded=0;orthogonalLoop=1;jettySize=auto;html=1;fontSize=12;shape=flexArrow;width=6.666666666666667;endSize=3.58;endWidth=16.88888888888889;fillColor=#f8cecc;strokeColor=#b85450;gradientDirection=radial;exitX=0.7;exitY=0.051;exitDx=0;exitDy=0;exitPerimeter=0;" parent="1" source="4s-bQreygS-hecEZm2PZ-119" edge="1">
          <mxGeometry relative="1" as="geometry">
            <mxPoint x="-256" y="1190" as="sourcePoint" />
            <mxPoint x="-240" y="1169" as="targetPoint" />
          </mxGeometry>
        </mxCell>
        <mxCell id="4s-bQreygS-hecEZm2PZ-189" style="edgeStyle=none;curved=1;rounded=0;orthogonalLoop=1;jettySize=auto;html=1;fontSize=12;shape=flexArrow;width=6.666666666666667;endSize=3.58;endWidth=16.88888888888889;fillColor=#dae8fc;strokeColor=#6c8ebf;gradientDirection=radial;exitX=0.281;exitY=0.04;exitDx=0;exitDy=0;exitPerimeter=0;entryX=0.812;entryY=0.885;entryDx=0;entryDy=0;entryPerimeter=0;" parent="1" source="4s-bQreygS-hecEZm2PZ-122" target="4s-bQreygS-hecEZm2PZ-118" edge="1">
          <mxGeometry relative="1" as="geometry">
            <mxPoint x="-193" y="1190" as="sourcePoint" />
            <mxPoint x="-210" y="1170" as="targetPoint" />
          </mxGeometry>
        </mxCell>
        <mxCell id="4s-bQreygS-hecEZm2PZ-190" style="edgeStyle=none;curved=1;rounded=0;orthogonalLoop=1;jettySize=auto;html=1;fontSize=12;shape=flexArrow;width=6.666666666666667;endSize=3.58;endWidth=16.88888888888889;fillColor=#dae8fc;strokeColor=#6c8ebf;gradientDirection=radial;entryX=0.19;entryY=0.897;entryDx=0;entryDy=0;entryPerimeter=0;exitX=0.696;exitY=0.039;exitDx=0;exitDy=0;exitPerimeter=0;" parent="1" source="4s-bQreygS-hecEZm2PZ-122" target="4s-bQreygS-hecEZm2PZ-129" edge="1">
          <mxGeometry relative="1" as="geometry">
            <mxPoint x="-177" y="1190" as="sourcePoint" />
            <mxPoint x="-160" y="1163" as="targetPoint" />
          </mxGeometry>
        </mxCell>
        <mxCell id="4s-bQreygS-hecEZm2PZ-191" style="edgeStyle=none;curved=1;rounded=0;orthogonalLoop=1;jettySize=auto;html=1;fontSize=12;shape=flexArrow;width=6.666666666666667;endSize=3.58;endWidth=16.88888888888889;fillColor=#D5E8D4;strokeColor=#82b366;gradientDirection=radial;exitX=0.693;exitY=0.04;exitDx=0;exitDy=0;exitPerimeter=0;entryX=0.179;entryY=0.891;entryDx=0;entryDy=0;entryPerimeter=0;" parent="1" source="4s-bQreygS-hecEZm2PZ-126" target="4s-bQreygS-hecEZm2PZ-128" edge="1">
          <mxGeometry relative="1" as="geometry">
            <mxPoint x="-98" y="1190" as="sourcePoint" />
            <mxPoint x="-80" y="1164" as="targetPoint" />
          </mxGeometry>
        </mxCell>
        <mxCell id="4s-bQreygS-hecEZm2PZ-192" style="edgeStyle=none;curved=1;rounded=0;orthogonalLoop=1;jettySize=auto;html=1;fontSize=12;shape=flexArrow;width=6.666666666666667;endSize=3.58;endWidth=16.88888888888889;fillColor=#D5E8D4;strokeColor=#82b366;gradientDirection=radial;exitX=0.354;exitY=0.041;exitDx=0;exitDy=0;exitPerimeter=0;entryX=0.819;entryY=0.872;entryDx=0;entryDy=0;entryPerimeter=0;" parent="1" source="4s-bQreygS-hecEZm2PZ-127" target="4s-bQreygS-hecEZm2PZ-128" edge="1">
          <mxGeometry relative="1" as="geometry">
            <mxPoint x="-34" y="1190" as="sourcePoint" />
            <mxPoint x="-50" y="1163" as="targetPoint" />
          </mxGeometry>
        </mxCell>
        <mxCell id="4s-bQreygS-hecEZm2PZ-193" style="edgeStyle=none;curved=1;rounded=0;orthogonalLoop=1;jettySize=auto;html=1;fontSize=12;shape=flexArrow;width=6.666666666666667;endSize=3.58;endWidth=16.88888888888889;fillColor=#e1d5e7;strokeColor=#9673a6;gradientDirection=radial;entryX=0.5;entryY=1;entryDx=0;entryDy=0;exitX=0.5;exitY=0;exitDx=0;exitDy=0;" parent="1" source="4s-bQreygS-hecEZm2PZ-129" target="4s-bQreygS-hecEZm2PZ-130" edge="1">
          <mxGeometry relative="1" as="geometry">
            <mxPoint x="-153.5" y="1144" as="sourcePoint" />
            <mxPoint x="-136.5" y="1120" as="targetPoint" />
          </mxGeometry>
        </mxCell>
        <mxCell id="4s-bQreygS-hecEZm2PZ-194" style="edgeStyle=none;curved=1;rounded=0;orthogonalLoop=1;jettySize=auto;html=1;fontSize=12;shape=flexArrow;width=6.666666666666667;endSize=3.58;endWidth=16.88888888888889;fillColor=#f8cecc;strokeColor=#b85450;gradientDirection=radial;exitX=0.755;exitY=0.076;exitDx=0;exitDy=0;exitPerimeter=0;entryX=0;entryY=1;entryDx=0;entryDy=0;" parent="1" source="4s-bQreygS-hecEZm2PZ-118" target="4s-bQreygS-hecEZm2PZ-130" edge="1">
          <mxGeometry relative="1" as="geometry">
            <mxPoint x="-200" y="1114" as="sourcePoint" />
            <mxPoint x="-185" y="1090" as="targetPoint" />
          </mxGeometry>
        </mxCell>
        <mxCell id="4s-bQreygS-hecEZm2PZ-195" style="edgeStyle=none;curved=1;rounded=0;orthogonalLoop=1;jettySize=auto;html=1;fontSize=12;shape=flexArrow;width=6.666666666666667;endSize=3.58;endWidth=16.88888888888889;fillColor=#B9E0A5;strokeColor=#82b366;gradientDirection=radial;exitX=0.193;exitY=0.089;exitDx=0;exitDy=0;exitPerimeter=0;" parent="1" source="4s-bQreygS-hecEZm2PZ-128" target="4s-bQreygS-hecEZm2PZ-130" edge="1">
          <mxGeometry relative="1" as="geometry">
            <mxPoint x="-90" y="1134" as="sourcePoint" />
            <mxPoint x="-41" y="1100" as="targetPoint" />
          </mxGeometry>
        </mxCell>
        <mxCell id="4s-bQreygS-hecEZm2PZ-211" value="" style="ellipse;whiteSpace=wrap;html=1;aspect=fixed;fillColor=#e1d5e7;strokeColor=#9673a6;" parent="1" vertex="1">
          <mxGeometry x="260" y="1126" width="50" height="50" as="geometry" />
        </mxCell>
        <mxCell id="4s-bQreygS-hecEZm2PZ-212" value="" style="ellipse;whiteSpace=wrap;html=1;aspect=fixed;fillColor=#CDA2BE;strokeColor=#9673a6;" parent="1" vertex="1">
          <mxGeometry x="260" y="1053" width="50" height="50" as="geometry" />
        </mxCell>
        <mxCell id="4s-bQreygS-hecEZm2PZ-214" style="edgeStyle=none;curved=1;rounded=0;orthogonalLoop=1;jettySize=auto;html=1;fontSize=12;shape=flexArrow;width=6.666666666666667;endSize=3.58;endWidth=16.88888888888889;fillColor=#dae8fc;strokeColor=#6c8ebf;gradientDirection=radial;entryX=0.5;entryY=1;entryDx=0;entryDy=0;exitX=0.5;exitY=0;exitDx=0;exitDy=0;" parent="1" source="4s-bQreygS-hecEZm2PZ-219" target="4s-bQreygS-hecEZm2PZ-211" edge="1">
          <mxGeometry relative="1" as="geometry">
            <mxPoint x="253.20000000000027" y="1194.6499999999999" as="sourcePoint" />
            <mxPoint x="270" y="1166" as="targetPoint" />
          </mxGeometry>
        </mxCell>
        <mxCell id="4s-bQreygS-hecEZm2PZ-215" style="edgeStyle=none;curved=1;rounded=0;orthogonalLoop=1;jettySize=auto;html=1;fontSize=12;shape=flexArrow;width=6.666666666666667;endSize=3.58;endWidth=16.88888888888889;fillColor=#e1d5e7;strokeColor=#9673a6;gradientDirection=radial;entryX=0.5;entryY=1;entryDx=0;entryDy=0;exitX=0.5;exitY=0;exitDx=0;exitDy=0;" parent="1" source="4s-bQreygS-hecEZm2PZ-211" target="4s-bQreygS-hecEZm2PZ-212" edge="1">
          <mxGeometry relative="1" as="geometry">
            <mxPoint x="276.5" y="1147" as="sourcePoint" />
            <mxPoint x="293.5" y="1123" as="targetPoint" />
          </mxGeometry>
        </mxCell>
        <mxCell id="4s-bQreygS-hecEZm2PZ-216" style="edgeStyle=none;curved=1;rounded=0;orthogonalLoop=1;jettySize=auto;html=1;fontSize=12;shape=flexArrow;width=6.666666666666667;endSize=3.58;endWidth=16.88888888888889;fillColor=#f8cecc;strokeColor=#b85450;gradientDirection=radial;exitX=0.755;exitY=0.076;exitDx=0;exitDy=0;exitPerimeter=0;entryX=0;entryY=1;entryDx=0;entryDy=0;" parent="1" target="4s-bQreygS-hecEZm2PZ-212" edge="1">
          <mxGeometry relative="1" as="geometry">
            <mxPoint x="217.75" y="1129.8000000000002" as="sourcePoint" />
            <mxPoint x="245" y="1093" as="targetPoint" />
          </mxGeometry>
        </mxCell>
        <mxCell id="4s-bQreygS-hecEZm2PZ-217" style="edgeStyle=none;curved=1;rounded=0;orthogonalLoop=1;jettySize=auto;html=1;fontSize=12;shape=flexArrow;width=6.666666666666667;endSize=3.58;endWidth=16.88888888888889;fillColor=#B9E0A5;strokeColor=#82b366;gradientDirection=radial;exitX=0.193;exitY=0.089;exitDx=0;exitDy=0;exitPerimeter=0;" parent="1" target="4s-bQreygS-hecEZm2PZ-212" edge="1">
          <mxGeometry relative="1" as="geometry">
            <mxPoint x="349.6500000000001" y="1130.45" as="sourcePoint" />
            <mxPoint x="389" y="1103" as="targetPoint" />
          </mxGeometry>
        </mxCell>
        <mxCell id="4s-bQreygS-hecEZm2PZ-218" value="D2" style="rounded=0;whiteSpace=wrap;html=1;fillColor=#f8cecc;strokeColor=#b85450;dashed=1;aspect=fixed;" parent="1" vertex="1">
          <mxGeometry x="177.5" y="1125" width="45" height="45" as="geometry" />
        </mxCell>
        <mxCell id="4s-bQreygS-hecEZm2PZ-219" value="D3" style="rounded=0;whiteSpace=wrap;html=1;fillColor=#dae8fc;strokeColor=#6c8ebf;dashed=1;aspect=fixed;" parent="1" vertex="1">
          <mxGeometry x="262.5" y="1207" width="45" height="45" as="geometry" />
        </mxCell>
        <mxCell id="4s-bQreygS-hecEZm2PZ-220" value="D1" style="rounded=0;whiteSpace=wrap;html=1;fillColor=#d5e8d4;strokeColor=#82b366;dashed=1;aspect=fixed;" parent="1" vertex="1">
          <mxGeometry x="347.5" y="1123" width="45" height="45" as="geometry" />
        </mxCell>
      </root>
    </mxGraphModel>
  </diagram>
</mxfile>
